<?xml version="1.0" encoding="UTF-8" standalone="no"?><!DOCTYPE svg PUBLIC "-//W3C//DTD SVG 1.1//EN" "http://www.w3.org/Graphics/SVG/1.1/DTD/svg11.dtd"><svg width="100%" height="100%" viewBox="0 0 534 534" version="1.1" xmlns="http://www.w3.org/2000/svg" xmlns:xlink="http://www.w3.org/1999/xlink" xml:space="preserve" xmlns:serif="http://www.serif.com/" style="fill-rule:evenodd;clip-rule:evenodd;stroke-linejoin:round;stroke-miterlimit:2;"><circle cx="266.667" cy="266.667" r="266.667" style="fill:#0e263e;"/><path d="M266.667,-0c147.177,-0 266.666,119.489 266.666,266.667c0,147.177 -119.489,266.666 -266.666,266.666c-147.178,0 -266.667,-119.489 -266.667,-266.666c-0,-147.178 119.489,-266.667 266.667,-266.667Zm-0,8.333c-142.578,0 -258.334,115.756 -258.334,258.334c0,142.578 115.756,258.333 258.334,258.333c142.578,-0 258.333,-115.755 258.333,-258.333c-0,-142.578 -115.755,-258.334 -258.333,-258.334Z" style="fill:#f9fafb;"/><path d="M262.5,409.327l-131.132,-60.234l-0,-95.107l-74.933,-34.873l206.065,-95.107l206.065,95.107l-0,126.809l-37.467,0l0,-109.372l-37.466,17.436l0,95.107l-131.132,60.234Zm0,-131.565l128.322,-58.649l-128.322,-58.649l-128.322,58.649l128.322,58.649Zm0,95.504l93.666,-42.798l-0,-59.839l-93.666,43.591l-93.666,-43.591l0,59.839l93.666,42.798Z" style="fill:#f9fafb;fill-rule:nonzero;"/></svg>